<svg width="105" height="24" viewBox="0 0 105 24" fill="none" xmlns="http://www.w3.org/2000/svg">
<path d="M8.37989 23.5167C3.64343 23.5167 0 19.9064 0 15.1037C0 10.301 3.64343 6.65754 8.37989 6.65754C12.2883 6.65754 15.6336 9.27419 16.1305 12.7851H12.3545C11.9571 11.2946 10.301 10.2016 8.37989 10.2016C5.697 10.2016 3.64343 12.3214 3.64343 15.1037C3.64343 17.8528 5.697 19.9726 8.37989 19.9726C10.301 19.9726 11.9902 18.8796 12.3877 17.2566H16.1636C15.733 20.9332 12.3214 23.5167 8.37989 23.5167Z" fill="black"/>
<path d="M21.3581 0V23.1855H17.6815V0H21.3581Z" fill="black"/>
<path d="M39.0693 14.7393C39.0693 15.1699 39.0362 15.6336 38.97 15.9649H26.4829C26.8473 18.5484 28.5365 20.1714 31.2856 20.1714C33.273 20.1714 34.8297 19.2439 35.1609 17.8528H38.8706C38.2744 21.2644 35.194 23.5167 31.2194 23.5167C26.4829 23.5167 22.8064 19.8401 22.8064 15.0043C22.8064 10.301 26.4829 6.65754 31.1531 6.65754C35.5253 6.65754 39.0693 10.0029 39.0693 14.7393ZM26.6154 13.1495H35.0616C34.8297 11.129 33.1736 9.70478 30.9544 9.70478C28.7684 9.70478 27.1785 11.0628 26.6154 13.1495Z" fill="black"/>
<path d="M59.5916 6.65754C63.5 6.65754 66.216 9.20794 66.216 13.282V23.1855H62.4732V14.11C62.4732 11.6921 61.1483 10.2016 58.9622 10.2016C57.1405 10.2016 55.3519 11.3609 55.3519 14.11V23.1855H51.6423V14.11C51.6423 11.659 50.2843 10.2016 48.0982 10.2016C46.3096 10.2016 44.4879 11.3278 44.4879 14.11V23.1855H40.8113V6.98876H44.4879V9.27419C45.6803 7.28686 47.7339 6.65754 49.4231 6.65754C51.7747 6.65754 53.4309 7.55184 54.4245 9.50604C55.3519 7.75057 57.3724 6.65754 59.5916 6.65754Z" fill="black"/>
<path d="M77.5207 10.4997H73.2811V17.0248C73.2811 19.0783 74.5397 19.9064 76.3283 19.9064C76.7258 19.9064 77.1564 19.8733 77.5207 19.7739V23.1855C76.9576 23.318 76.1296 23.3842 75.5334 23.3842C71.9562 23.3842 69.5714 21.1981 69.5714 17.091V10.4997H66.491V6.98876H69.5714V4.78718L73.2811 2.64977V6.98876H77.5207V10.4997Z" fill="black"/>
<path d="M90.8906 6.98876H94.6003V23.1855H90.8906V20.337C89.7314 22.3574 87.744 23.5167 85.1605 23.5167C80.8547 23.5167 77.41 19.7408 77.41 15.0706C77.41 10.4003 80.8547 6.65754 85.1605 6.65754C87.744 6.65754 89.7314 7.81682 90.8906 9.83726V6.98876ZM85.9555 20.0057C88.7708 20.0057 90.8906 17.8859 90.8906 15.0706C90.8906 12.2883 88.7708 10.1685 85.9555 10.1685C83.2063 10.1685 81.0534 12.3545 81.0534 15.0706C81.0534 17.8197 83.2063 20.0057 85.9555 20.0057Z" fill="black"/>
<path fill-rule="evenodd" clip-rule="evenodd" d="M105 6.98657H97.8137V19.786L105 6.98657Z" fill="#2563EB"/>
</svg>
 